<svg id="Layer_1" data-name="Layer 1" xmlns="http://www.w3.org/2000/svg" viewBox="0 0 628.09 329.37"><defs><style>.cls-1{fill:#ba141a;}.cls-2{fill:#ed1c24;}.cls-3{fill:#808285;}.cls-4{fill:#fff;}</style></defs><polygon class="cls-1" points="233.48 89.66 335 89.66 335.56 88.35 291.31 45.57 233.48 89.66"/><polygon class="cls-2" points="351.09 0 291.31 45.57 335.56 88.35 335.67 88.1 351.09 0"/><polygon class="cls-3" points="335.56 98.16 236.39 98.16 311 134.76 336.37 99.27 335.56 98.16"/><polygon class="cls-4" points="336.37 99.27 311 134.76 390.89 173.96 336.37 99.27"/><path class="cls-4" d="M101.39,368.49a99,99,0,0,1,.86-14.63,21.09,21.09,0,0,1,2.69-8.24,14.8,14.8,0,0,1,6-5.61,21.12,21.12,0,0,1,9.15-1.68A21.1,21.1,0,0,1,129.2,340a15,15,0,0,1,6,5.61,21.65,21.65,0,0,1,2.67,8.29,100.23,100.23,0,0,1,.84,14.58,97,97,0,0,1-.86,14.55,22.32,22.32,0,0,1-2.65,8.32,15.05,15.05,0,0,1-6,5.6,21.1,21.1,0,0,1-9.14,1.68,21.12,21.12,0,0,1-9.15-1.68,14.84,14.84,0,0,1-6-5.6,21.15,21.15,0,0,1-2.69-8.24A99,99,0,0,1,101.39,368.49Zm11,0q0,14.19,1.66,17.88c1.1,2.45,3.15,3.68,6.13,3.68s4.94-1.2,6-3.61,1.62-8.39,1.62-17.95-.54-15.57-1.64-18-3.12-3.67-6.07-3.67-5,1.22-6.08,3.67S112.34,358.92,112.34,368.49Z" transform="translate(-101.39 -131.7)"/><path class="cls-4" d="M147.47,397.26V339.71h17.22a31.32,31.32,0,0,1,8.39.9,11.68,11.68,0,0,1,5.14,2.92A16.24,16.24,0,0,1,182.5,351q1.25,4.5,1.25,14,0,12.25-.86,17.32a25.66,25.66,0,0,1-2.91,8.61,10.7,10.7,0,0,1-5.52,4.95q-3.53,1.39-12.23,1.4Zm10.5-8.48h4.74a16.88,16.88,0,0,0,5.08-.52,4.57,4.57,0,0,0,2.32-1.8,15.46,15.46,0,0,0,2.13-6.14,87.21,87.21,0,0,0,.64-12.5,70.1,70.1,0,0,0-.75-12.19,11.69,11.69,0,0,0-2.54-5.75,5.18,5.18,0,0,0-2.41-1.37,19.78,19.78,0,0,0-4.62-.39H158Z" transform="translate(-101.39 -131.7)"/><path class="cls-4" d="M215.33,376.75h10.42c0,.25,0,.61,0,1.1s0,.86,0,1.14q0,10-4.21,14.81t-12.87,4.84a20.86,20.86,0,0,1-7.06-1.06,12.92,12.92,0,0,1-5.08-3.31,16.73,16.73,0,0,1-4.11-8.22q-1.2-5.24-1.2-18.23a111.46,111.46,0,0,1,.71-14.15,22.17,22.17,0,0,1,2.2-7.83,14.39,14.39,0,0,1,5.76-5.73,19,19,0,0,1,8.78-1.78q8.75,0,12.72,4.56t4,14.65H215.1v-1.38q0-4.68-1.51-7a5.14,5.14,0,0,0-4.62-2.3,5.23,5.23,0,0,0-5.25,3.18q-1.4,3.17-1.4,17.56,0,15.54,1.37,18.91a5.12,5.12,0,0,0,5.21,3.36q3.58,0,5-2.63c.94-1.76,1.42-5,1.42-9.74Z" transform="translate(-101.39 -131.7)"/><path class="cls-4" d="M281,376.15h6.36q-.12,11-4.54,16.72T270,398.64q-8.89,0-13.17-7.34t-4.28-22.66q0-16,4.24-23.15t13.7-7.16q7.89,0,12.16,4.58t4.28,13v.71h-6.2q0-5.89-2.77-9.27a9.24,9.24,0,0,0-7.54-3.36q-5.88,0-8.45,5.7t-2.58,18.93q0,12.93,2.65,18.4a9.05,9.05,0,0,0,8.75,5.48,8.49,8.49,0,0,0,7.53-4q2.63-4,2.63-11.45Z" transform="translate(-101.39 -131.7)"/><path class="cls-4" d="M295.82,368.49q0-16.07,4.35-23.11t14.09-7.05q9.81,0,14.13,7t4.31,23.19q0,16.22-4.29,23.18t-14.15,7q-9.7,0-14.07-7.1T295.82,368.49Zm6.69,0q0,13.86,2.63,19.17t9.12,5.3q6.57,0,9.16-5.17t2.59-19.3q0-14.08-2.59-19.25t-9.16-5.15q-6.5,0-9.12,5.28T302.51,368.49Z" transform="translate(-101.39 -131.7)"/><path class="cls-4" d="M341.82,397.26V339.71h8.59l20,49.37-.6-49.37H376v57.55h-8.22L347.5,346.44l.52,50.82Z" transform="translate(-101.39 -131.7)"/><path class="cls-4" d="M385,379h6.13V381c0,3.91.9,6.87,2.71,8.86s4.47,3,8,3a9.85,9.85,0,0,0,7.51-2.88,11,11,0,0,0,2.73-7.92,10.1,10.1,0,0,0-1.66-6.22q-1.67-2.19-7.49-4.39L399,370q-7-2.53-8.45-3.81a13.37,13.37,0,0,1-3.56-5.06,18.16,18.16,0,0,1-1.18-6.83q0-7.5,4.15-11.75t11.54-4.24q7,0,11,3.93t4,10.83c0,.15,0,.39,0,.73s0,.58,0,.73h-5.9V354c0-3.24-.79-5.73-2.37-7.49a8.57,8.57,0,0,0-6.71-2.64,9.65,9.65,0,0,0-7.06,2.53,9.09,9.09,0,0,0-2.58,6.82,10,10,0,0,0,1.75,6.31q1.76,2.25,7.66,4.41l2.1.79q9,3.31,10.76,5a12.1,12.1,0,0,1,3.16,4.82,20.16,20.16,0,0,1,1,6.8q0,8.18-4.52,12.74t-12.59,4.56q-8,0-12.15-4.49t-4.11-13.19c0-.2,0-.51,0-.95S385,379.19,385,379Z" transform="translate(-101.39 -131.7)"/><path class="cls-4" d="M437.89,397.26V345.62H423.21v-5.91h35.05v5.91H444.47v51.64Z" transform="translate(-101.39 -131.7)"/><path class="cls-4" d="M464.42,397.26V339.71h16.15q8.93,0,13.26,3.65t4.34,11.11c0,3.87-.88,6.95-2.62,9.25s-4.43,3.92-8.07,4.84q4.78.42,7.17,3.1t2.92,8.34q.18,2.08.41,5.79.6,9.42,3,11.47h-8q-1.2-2-1.53-9.38c-.13-2.46-.25-4.42-.38-5.86-.35-4-1.37-6.67-3.08-8.13s-4.77-2.19-9.17-2.19H470.7v25.56Zm6.28-31.16h7.81q6.76,0,9.92-2.6t3.16-8.09c0-3.51-.93-6.07-2.8-7.66s-4.89-2.39-9.05-2.39h-9Z" transform="translate(-101.39 -131.7)"/><path class="cls-4" d="M509.19,339.71h6.43v38.72q0,8.07,2.3,11.23t7.82,3.15c3.74,0,6.49-1.15,8.26-3.47s2.66-5.95,2.66-10.91V339.71h6.27v37.56q0,7.29-.82,10.29a13.91,13.91,0,0,1-2.76,5.33,15,15,0,0,1-5.81,4.24,22.11,22.11,0,0,1-16-.11,13.51,13.51,0,0,1-5.68-4.43,12.25,12.25,0,0,1-2.07-5,59.25,59.25,0,0,1-.62-10.33Z" transform="translate(-101.39 -131.7)"/><path class="cls-4" d="M580.45,376.15h6.36q-.12,11-4.55,16.72t-12.76,5.77q-8.89,0-13.17-7.34t-4.28-22.66q0-16,4.24-23.15t13.7-7.16q7.89,0,12.16,4.58t4.28,13v.71h-6.2q0-5.89-2.77-9.27a9.25,9.25,0,0,0-7.55-3.36q-5.86,0-8.44,5.7t-2.58,18.93q0,12.93,2.65,18.4a9.05,9.05,0,0,0,8.75,5.48,8.49,8.49,0,0,0,7.53-4q2.63-4,2.63-11.45Z" transform="translate(-101.39 -131.7)"/><path class="cls-4" d="M607.1,397.26V345.62H592.41v-5.91h35.05v5.91H613.67v51.64Z" transform="translate(-101.39 -131.7)"/><path class="cls-4" d="M633.63,397.26V339.71h6.57v57.55Z" transform="translate(-101.39 -131.7)"/><path class="cls-4" d="M649.32,368.49q0-16.07,4.35-23.11t14.09-7.05q9.82,0,14.13,7t4.31,23.19q0,16.22-4.29,23.18t-14.15,7q-9.71,0-14.07-7.1T649.32,368.49Zm6.69,0q0,13.86,2.63,19.17t9.12,5.3q6.57,0,9.16-5.17t2.6-19.3q0-14.08-2.6-19.25t-9.16-5.15q-6.5,0-9.12,5.28T656,368.49Z" transform="translate(-101.39 -131.7)"/><path class="cls-4" d="M695.32,397.26V339.71h8.6l20,49.37-.6-49.37h6.21v57.55h-8.22L701,346.44l.52,50.82Z" transform="translate(-101.39 -131.7)"/><path class="cls-4" d="M283.47,453.76l7.92-29.05h4.13l8,29.05h-3.28l-2.21-8.37h-9.21l-2.11,8.37Zm6.13-11.32h7.73l-3.86-15.22Z" transform="translate(-101.39 -131.7)"/><path class="cls-4" d="M306.41,453.76V424.71h3v29.05Z" transform="translate(-101.39 -131.7)"/><path class="cls-4" d="M318.07,453.76l-5.57-21.71h3.13l4,17.35L323,432.05h3.09l3.76,17.39,3.73-17.39h3l-5.26,21.71h-3l-3.79-16.84-3.32,16.84Z" transform="translate(-101.39 -131.7)"/><path class="cls-4" d="M353.86,453.8l-1,.14a7.79,7.79,0,0,1-.79.05,2.58,2.58,0,0,1-2-.81,3.53,3.53,0,0,1-.8-2.3,5.55,5.55,0,0,1-2,2.54,5.48,5.48,0,0,1-3.13.89,4.53,4.53,0,0,1-3.67-1.58,6.83,6.83,0,0,1-1.31-4.46,6.58,6.58,0,0,1,1.22-4.28q1.21-1.47,5.25-2.83l.06,0c2.21-.74,3.32-1.61,3.32-2.6v-2a2.34,2.34,0,0,0-.76-2,3.92,3.92,0,0,0-2.45-.62,3.17,3.17,0,0,0-2.41.85,3.72,3.72,0,0,0-.79,2.61v.37h-2.85q0-3.32,1.58-4.85t4.83-1.52a6.23,6.23,0,0,1,4.52,1.4,6,6,0,0,1,1.42,4.44V450a1.88,1.88,0,0,0,.31,1.22,1.2,1.2,0,0,0,1,.37,2.32,2.32,0,0,0,.41-.06l.08,0Zm-4.81-11.75a8.52,8.52,0,0,1-3.17,1.68l-.31.11a5.56,5.56,0,0,0-2.75,1.66,4.8,4.8,0,0,0-.64,2.74,3.86,3.86,0,0,0,.72,2.5,2.41,2.41,0,0,0,2,.89,3.64,3.64,0,0,0,3-1.43,6.08,6.08,0,0,0,1.13-3.85Z" transform="translate(-101.39 -131.7)"/><path class="cls-4" d="M356.12,460.73V458a4.27,4.27,0,0,0,.94.3,5.11,5.11,0,0,0,.95.1,2.64,2.64,0,0,0,2.12-.91,10.28,10.28,0,0,0,1.56-3.51l-6.38-21.9h3.28l4.64,17.51,4.8-17.51h3.11l-6.68,22.68a11.56,11.56,0,0,1-2.43,5,5.43,5.43,0,0,1-3.91,1.32,5.31,5.31,0,0,1-.9-.08A11.25,11.25,0,0,1,356.12,460.73Z" transform="translate(-101.39 -131.7)"/><path class="cls-4" d="M373.53,447.24h3a.28.28,0,0,1,0,.11c0,.28,0,.48,0,.62a3.46,3.46,0,0,0,1,2.7,4.17,4.17,0,0,0,2.93.92,3.87,3.87,0,0,0,2.76-.94,3.32,3.32,0,0,0,1-2.57c0-1.71-1.31-3-3.94-3.92l-.08,0c-2.62-.92-4.33-1.83-5.11-2.73a7,7,0,0,1,.5-8.39,6.48,6.48,0,0,1,4.65-1.59A6.72,6.72,0,0,1,385,433a6,6,0,0,1,1.6,4.51v.31H383.7a4.62,4.62,0,0,0-.88-2.86,3.15,3.15,0,0,0-2.48-.9,3.74,3.74,0,0,0-2.66.84,3.25,3.25,0,0,0-.9,2.5,3.65,3.65,0,0,0,.23,1.32,2.28,2.28,0,0,0,.69.94,10.48,10.48,0,0,0,3.3,1.51c.89.28,1.56.51,2,.7a6.87,6.87,0,0,1,3.21,2.2,5.89,5.89,0,0,1,1,3.52,6.55,6.55,0,0,1-1.88,5,7.44,7.44,0,0,1-5.34,1.78,6.41,6.41,0,0,1-4.82-1.69,6.88,6.88,0,0,1-1.64-5Z" transform="translate(-101.39 -131.7)"/><path class="cls-4" d="M399.15,453.76l7.93-29.05h4.13l8,29.05H416l-2.2-8.37h-9.21l-2.11,8.37Zm6.14-11.32H413l-3.87-15.22Z" transform="translate(-101.39 -131.7)"/><path class="cls-4" d="M425.6,449.27a2.42,2.42,0,0,0,.49,1.79,4.13,4.13,0,0,0,2.34.42h.41a1.7,1.7,0,0,0,.27,0l0,2.66-.75,0-1.49.06a5,5,0,0,1-3.2-.86,3.16,3.16,0,0,1-1.05-2.6V434.56h-3v-2.51h3v-5.79h3v5.79h3.53v2.51H425.6Z" transform="translate(-101.39 -131.7)"/><path class="cls-4" d="M440.9,444.54H444v1a6.43,6.43,0,0,0,1.37,4.47,5.2,5.2,0,0,0,4,1.51,5,5,0,0,0,3.8-1.46,5.59,5.59,0,0,0,1.37-4,5.12,5.12,0,0,0-.84-3.14,8.9,8.9,0,0,0-3.78-2.21l-2-.74a18.47,18.47,0,0,1-4.27-1.92,6.86,6.86,0,0,1-1.8-2.56,9.35,9.35,0,0,1-.59-3.44,8.16,8.16,0,0,1,2.09-5.94,7.82,7.82,0,0,1,5.83-2.14,7.57,7.57,0,0,1,5.56,2,7.34,7.34,0,0,1,2,5.47c0,.08,0,.2,0,.37s0,.29,0,.37h-3v-.3a5.47,5.47,0,0,0-1.2-3.79,4.35,4.35,0,0,0-3.39-1.33,4.88,4.88,0,0,0-3.56,1.28,4.59,4.59,0,0,0-1.3,3.44,5.07,5.07,0,0,0,.88,3.19,9.12,9.12,0,0,0,3.87,2.23l1.06.39q4.54,1.68,5.43,2.51a6.15,6.15,0,0,1,1.6,2.44,10.24,10.24,0,0,1,.51,3.43,8.74,8.74,0,0,1-2.28,6.43,8.53,8.53,0,0,1-6.36,2.3q-4.05,0-6.13-2.26t-2.07-6.66c0-.1,0-.26,0-.48S440.9,444.64,440.9,444.54Z" transform="translate(-101.39 -131.7)"/><path class="cls-4" d="M471.9,446.42h3a9,9,0,0,1-1.76,5.89,6.09,6.09,0,0,1-4.92,2,5.64,5.64,0,0,1-5.18-2.74q-1.66-2.73-1.66-8.47,0-6.08,1.66-8.89a6.4,6.4,0,0,1,10.29-.43q1.65,2.4,1.65,7.3c0,.52,0,.91,0,1.17s0,.51,0,.72l-10.43,0v1a13.88,13.88,0,0,0,.94,5.94,3.14,3.14,0,0,0,3,1.87,2.91,2.91,0,0,0,2.54-1.4,6.85,6.85,0,0,0,.93-3.82Zm-7.41-5.86h7.37V440a9.32,9.32,0,0,0-.87-4.52,2.87,2.87,0,0,0-2.64-1.51,3.14,3.14,0,0,0-2.91,1.63A10.22,10.22,0,0,0,464.49,440.56Z" transform="translate(-101.39 -131.7)"/><path class="cls-4" d="M479,453.76V432.05h2.81v3.55a6.39,6.39,0,0,1,2-3,4.72,4.72,0,0,1,3-1.07l.79,0,.52.05v3.25a2.49,2.49,0,0,0-.54-.2,3.27,3.27,0,0,0-.65-.06,4.48,4.48,0,0,0-3.64,1.54,6.5,6.5,0,0,0-1.31,4.32v13.3Z" transform="translate(-101.39 -131.7)"/><path class="cls-4" d="M495.81,453.76l-5.87-21.71h3.32l4.24,17,4.46-17h3.16l-6,21.71Z" transform="translate(-101.39 -131.7)"/><path class="cls-4" d="M508.05,428.65v-3.94h3.13v3.94Zm0,25.11V432.05h3.13v21.71Z" transform="translate(-101.39 -131.7)"/><path class="cls-4" d="M526.29,446.1h3a9.21,9.21,0,0,1-1.81,6.1,6.33,6.33,0,0,1-5.11,2.15A5.85,5.85,0,0,1,517,451.5q-1.74-2.85-1.74-8.75,0-5.69,1.81-8.48a6.1,6.1,0,0,1,5.49-2.81,6.31,6.31,0,0,1,4.8,1.86,7,7,0,0,1,1.76,5.07v.45h-3a6.17,6.17,0,0,0-1-3.47,3,3,0,0,0-2.51-1.19,3.29,3.29,0,0,0-3.18,2c-.63,1.32-1,3.55-1,6.71s.32,5.45,1,6.78a3.3,3.3,0,0,0,3.21,2,3,3,0,0,0,2.62-1.41A7.89,7.89,0,0,0,526.29,446.1Z" transform="translate(-101.39 -131.7)"/><path class="cls-4" d="M543.48,446.42h3a9.05,9.05,0,0,1-1.76,5.89,6.09,6.09,0,0,1-4.92,2,5.64,5.64,0,0,1-5.18-2.74q-1.67-2.73-1.67-8.47,0-6.08,1.67-8.89a6.39,6.39,0,0,1,10.28-.43c1.1,1.6,1.66,4,1.66,7.3,0,.52,0,.91,0,1.17s0,.51,0,.72l-10.44,0v1a13.86,13.86,0,0,0,1,5.94,3.14,3.14,0,0,0,3,1.87,2.92,2.92,0,0,0,2.54-1.4,6.85,6.85,0,0,0,.93-3.82Zm-7.42-5.86h7.38V440a9.2,9.2,0,0,0-.88-4.52,2.84,2.84,0,0,0-2.63-1.51,3.13,3.13,0,0,0-2.91,1.63A10.09,10.09,0,0,0,536.06,440.56Z" transform="translate(-101.39 -131.7)"/></svg>